# xmcd
#
# Track frame offsets:
#	150
#	16367
#	48375
#
# Disc length: 1085 seconds
#
# Revision: 1
# Processed by: cddbd v1.5.1PL0 Copyright (c) Steve Scherf et al.
# Submitted via: EasyCDDAExtractor 7.0.6.1
#
DISCID=1c043b03
DTITLE=Donnell Jones - You Know What's Up
DYEAR=1900
DGENRE=R&B
TTITLE0=You Know What's Up (Radio Edit)
TTITLE1=You Know What's Up (Main Mix)
TTITLE2=You Know What's Up (Dub Mix)
EXTD=ID3G: 3\n
EXTT0=
EXTT1=
EXTT2=
PLAYORDER=
